<mxfile host="app.diagrams.net" agent="Mozilla/5.0 (Macintosh; Intel Mac OS X 10_15_7) AppleWebKit/537.36 (KHTML, like Gecko) Chrome/130.0.0.0 Safari/537.36" version="24.7.17">
  <diagram name="Page-1" id="xLctE7YmrqjrfFTLmTCF">
    <mxGraphModel dx="1004" dy="801" grid="1" gridSize="10" guides="1" tooltips="1" connect="1" arrows="1" fold="1" page="1" pageScale="1" pageWidth="850" pageHeight="1100" math="0" shadow="0">
      <root>
        <mxCell id="0" />
        <mxCell id="1" parent="0" />
        <mxCell id="_dazO7iIJBh39oal1dlc-7" value="" style="rounded=0;whiteSpace=wrap;html=1;" vertex="1" parent="1">
          <mxGeometry x="160" y="220" width="340" height="220" as="geometry" />
        </mxCell>
        <mxCell id="_dazO7iIJBh39oal1dlc-8" style="edgeStyle=orthogonalEdgeStyle;rounded=0;orthogonalLoop=1;jettySize=auto;html=1;exitX=1;exitY=0.25;exitDx=0;exitDy=0;entryX=0;entryY=0.25;entryDx=0;entryDy=0;" edge="1" parent="1" source="_dazO7iIJBh39oal1dlc-9" target="_dazO7iIJBh39oal1dlc-10">
          <mxGeometry relative="1" as="geometry" />
        </mxCell>
        <mxCell id="_dazO7iIJBh39oal1dlc-9" value="T1" style="rounded=0;whiteSpace=wrap;html=1;" vertex="1" parent="1">
          <mxGeometry x="165" y="250" width="120" height="60" as="geometry" />
        </mxCell>
        <mxCell id="_dazO7iIJBh39oal1dlc-10" value="T2" style="rounded=0;whiteSpace=wrap;html=1;" vertex="1" parent="1">
          <mxGeometry x="360" y="250" width="120" height="60" as="geometry" />
        </mxCell>
        <mxCell id="_dazO7iIJBh39oal1dlc-11" value="" style="endArrow=classic;html=1;rounded=0;exitX=0;exitY=0.5;exitDx=0;exitDy=0;entryX=1;entryY=0.5;entryDx=0;entryDy=0;" edge="1" parent="1" source="_dazO7iIJBh39oal1dlc-10" target="_dazO7iIJBh39oal1dlc-9">
          <mxGeometry width="50" height="50" relative="1" as="geometry">
            <mxPoint x="345" y="330" as="sourcePoint" />
            <mxPoint x="395" y="280" as="targetPoint" />
          </mxGeometry>
        </mxCell>
        <mxCell id="_dazO7iIJBh39oal1dlc-12" value="T3" style="rounded=0;whiteSpace=wrap;html=1;" vertex="1" parent="1">
          <mxGeometry x="620" y="240" width="120" height="60" as="geometry" />
        </mxCell>
        <mxCell id="_dazO7iIJBh39oal1dlc-13" value="" style="endArrow=classic;html=1;rounded=0;entryX=0;entryY=0.25;entryDx=0;entryDy=0;exitX=1.006;exitY=0.091;exitDx=0;exitDy=0;exitPerimeter=0;" edge="1" parent="1" source="_dazO7iIJBh39oal1dlc-7" target="_dazO7iIJBh39oal1dlc-12">
          <mxGeometry width="50" height="50" relative="1" as="geometry">
            <mxPoint x="400" y="440" as="sourcePoint" />
            <mxPoint x="450" y="390" as="targetPoint" />
          </mxGeometry>
        </mxCell>
        <mxCell id="_dazO7iIJBh39oal1dlc-14" value="Hasura" style="outlineConnect=0;dashed=0;verticalLabelPosition=bottom;verticalAlign=top;align=center;html=1;shape=mxgraph.aws3.api_gateway;fillColor=#D9A741;gradientColor=none;" vertex="1" parent="1">
          <mxGeometry x="310" y="630" width="76.5" height="93" as="geometry" />
        </mxCell>
        <mxCell id="_dazO7iIJBh39oal1dlc-15" value="&lt;div&gt;Hasura metadata Postgres&lt;/div&gt;" style="image;aspect=fixed;html=1;points=[];align=center;fontSize=12;image=img/lib/azure2/databases/Azure_Database_PostgreSQL_Server.svg;" vertex="1" parent="1">
          <mxGeometry x="500" y="570" width="45" height="60" as="geometry" />
        </mxCell>
        <mxCell id="_dazO7iIJBh39oal1dlc-16" value="Business loigc MSSQL" style="outlineConnect=0;dashed=0;verticalLabelPosition=bottom;verticalAlign=top;align=center;html=1;shape=mxgraph.aws3.sql_master;fillColor=#2E73B8;gradientColor=none;" vertex="1" parent="1">
          <mxGeometry x="500" y="700" width="60" height="64.5" as="geometry" />
        </mxCell>
        <mxCell id="_dazO7iIJBh39oal1dlc-17" style="edgeStyle=orthogonalEdgeStyle;rounded=0;orthogonalLoop=1;jettySize=auto;html=1;entryX=-0.042;entryY=0.563;entryDx=0;entryDy=0;entryPerimeter=0;" edge="1" parent="1" source="_dazO7iIJBh39oal1dlc-14" target="_dazO7iIJBh39oal1dlc-15">
          <mxGeometry relative="1" as="geometry" />
        </mxCell>
        <mxCell id="_dazO7iIJBh39oal1dlc-18" style="edgeStyle=orthogonalEdgeStyle;rounded=0;orthogonalLoop=1;jettySize=auto;html=1;entryX=0;entryY=0.5;entryDx=0;entryDy=0;entryPerimeter=0;" edge="1" parent="1" source="_dazO7iIJBh39oal1dlc-14" target="_dazO7iIJBh39oal1dlc-16">
          <mxGeometry relative="1" as="geometry" />
        </mxCell>
        <mxCell id="_dazO7iIJBh39oal1dlc-19" value="Revantage backend" style="image;html=1;image=img/lib/clip_art/computers/Server_128x128.png" vertex="1" parent="1">
          <mxGeometry x="330" y="840" width="80" height="80" as="geometry" />
        </mxCell>
        <mxCell id="_dazO7iIJBh39oal1dlc-20" value="Revantage validated" style="image;html=1;image=img/lib/clip_art/computers/Server_128x128.png" vertex="1" parent="1">
          <mxGeometry x="330" y="980" width="80" height="80" as="geometry" />
        </mxCell>
        <mxCell id="_dazO7iIJBh39oal1dlc-25" style="edgeStyle=orthogonalEdgeStyle;rounded=0;orthogonalLoop=1;jettySize=auto;html=1;entryX=0;entryY=0.5;entryDx=0;entryDy=0;" edge="1" parent="1" source="_dazO7iIJBh39oal1dlc-21" target="_dazO7iIJBh39oal1dlc-19">
          <mxGeometry relative="1" as="geometry" />
        </mxCell>
        <mxCell id="_dazO7iIJBh39oal1dlc-26" style="edgeStyle=orthogonalEdgeStyle;rounded=0;orthogonalLoop=1;jettySize=auto;html=1;entryX=0;entryY=0.5;entryDx=0;entryDy=0;" edge="1" parent="1" source="_dazO7iIJBh39oal1dlc-21" target="_dazO7iIJBh39oal1dlc-20">
          <mxGeometry relative="1" as="geometry" />
        </mxCell>
        <mxCell id="_dazO7iIJBh39oal1dlc-21" value="Revantage frontend" style="image;html=1;image=img/lib/clip_art/computers/Server_128x128.png" vertex="1" parent="1">
          <mxGeometry x="110" y="840" width="80" height="80" as="geometry" />
        </mxCell>
        <mxCell id="_dazO7iIJBh39oal1dlc-22" style="edgeStyle=orthogonalEdgeStyle;rounded=0;orthogonalLoop=1;jettySize=auto;html=1;entryX=0.05;entryY=0.93;entryDx=0;entryDy=0;entryPerimeter=0;" edge="1" parent="1" source="_dazO7iIJBh39oal1dlc-19" target="_dazO7iIJBh39oal1dlc-16">
          <mxGeometry relative="1" as="geometry" />
        </mxCell>
        <mxCell id="_dazO7iIJBh39oal1dlc-23" style="edgeStyle=orthogonalEdgeStyle;rounded=0;orthogonalLoop=1;jettySize=auto;html=1;entryX=1;entryY=0.96;entryDx=0;entryDy=0;entryPerimeter=0;" edge="1" parent="1" source="_dazO7iIJBh39oal1dlc-20" target="_dazO7iIJBh39oal1dlc-16">
          <mxGeometry relative="1" as="geometry" />
        </mxCell>
        <mxCell id="_dazO7iIJBh39oal1dlc-24" style="edgeStyle=orthogonalEdgeStyle;rounded=0;orthogonalLoop=1;jettySize=auto;html=1;entryX=0;entryY=0.8;entryDx=0;entryDy=0;entryPerimeter=0;" edge="1" parent="1" source="_dazO7iIJBh39oal1dlc-21" target="_dazO7iIJBh39oal1dlc-14">
          <mxGeometry relative="1" as="geometry" />
        </mxCell>
      </root>
    </mxGraphModel>
  </diagram>
</mxfile>
